<?xml version="1.0" encoding="utf-8"?>
<!-- Svg Vector Icons : http://www.onlinewebfonts.com/icon -->
<!DOCTYPE svg PUBLIC "-//W3C//DTD SVG 1.1//EN" "http://www.w3.org/Graphics/SVG/1.1/DTD/svg11.dtd">
<svg version="1.1" xmlns="http://www.w3.org/2000/svg" xmlns:xlink="http://www.w3.org/1999/xlink" x="0px" y="0px" viewBox="0 0 1000 1000" enable-background="new 0 0 1000 1000" xml:space="preserve">
<metadata> Svg Vector Icons : http://www.onlinewebfonts.com/icon </metadata>
<g><g transform="translate(0.000000,511.000000) scale(0.100000,-0.100000)"><path d="M4875,4519.7C4814.4,4498,242.9,676.9,152.1,575.3C54.8,460.7,89.4,346.1,292.7,129.8C441.9-30.2,500.3-49.7,621.4,26C658.1,47.6,1655,880.2,2837.9,1874.9c1182.9,994.7,2156,1807.8,2162.5,1807.8s979.6-813.1,2162.5-1807.8C8345.8,880.2,9344.9,47.6,9379.4,23.8c110.3-71.4,196.8-41.1,339.5,116.8c209.8,229.2,231.4,339.5,95.1,467.1c-84.3,80-4523.9,3808.1-4610.4,3873C5125.8,4537,4970.2,4556.4,4875,4519.7z"/><path d="M3147.2,1656.5L1302.6,108.2v-2045.7c2.2-2164.7,0-2143,101.6-2255.5c21.6-23.8,77.8-62.7,125.4-84.3c80-36.8,166.5-41.1,1228.3-41.1h1139.6v1965.7c0,1081.3,6.5,1983,13,2002.5c36.7,93,86.5,97.3,1089.9,97.3c977.5,0,1012-2.2,1074.8-84.3c21.6-26,26-490.9,28.1-2006.8v-1974.3h1141.8c1059.6,0,1146.1,4.3,1226.1,41.1c47.6,21.6,103.8,60.5,125.4,84.3c99.5,110.3,99.5,106,101.6,2006.8c0,988.2-6.5,1913.8-13,2056.5l-15.1,259.5L6845,1663c-1005.6,843.4-1833.8,1535.4-1840.3,1537.5C4996.1,3202.7,4159.2,2508.5,3147.2,1656.5z"/></g></g>
</svg>