<?xml version="1.0" encoding="utf-8"?>
<!-- Svg Vector Icons : http://www.onlinewebfonts.com/icon -->
<!DOCTYPE svg PUBLIC "-//W3C//DTD SVG 1.1//EN" "http://www.w3.org/Graphics/SVG/1.1/DTD/svg11.dtd">
<svg version="1.1" xmlns="http://www.w3.org/2000/svg" xmlns:xlink="http://www.w3.org/1999/xlink" x="0px" y="0px" viewBox="0 0 1000 1000" enable-background="new 0 0 1000 1000" xml:space="preserve">
<metadata> Svg Vector Icons : http://www.onlinewebfonts.com/icon </metadata>
<g><path d="M824.8,927.5c0,11.3-9.4,20.7-21.2,20.7H103.8c-11.3,0-21.2-9.4-21.2-20.7V179.9c0-11.3,9.4-20.7,21.2-20.7h182.7v73.9h334.9v-73.9h182.7c11.3,0,21.2,9.4,21.2,20.7v93.6h41.9v-93.6c0-34.5-28.1-62.5-63-62.5H618.4V49.9h-60.1C542.6,38.1,498.8,10,453.5,10c-45.8,0-89.1,28.6-104.9,39.9h-62.1v67.5H103.8c-34.5,0-63,28.1-63,62.5v747.6c0,34.5,28.1,62.5,63,62.5h700.3c34.5,0,63-28.1,63-62.5V670.9h-41.9v256.6H824.8z M328.4,91.7h34l5.9-4.9c11.8-9.8,50.2-35.5,84.7-35.5c40.9,0,84.2,35,84.7,35.5l5.9,4.9h33v98.5H328.4V91.7z M489.9,348.3H207.2c-11.3,0-21.2,9.4-21.2,20.7c0,11.3,9.4,20.7,21.2,20.7h282.7c11.3,0,21.2-9.4,21.2-20.7C511.1,357.7,501.7,348.3,489.9,348.3z M489.9,463.6H207.2c-11.3,0-21.2,9.4-21.2,20.7c0,11.3,9.4,20.7,21.2,20.7h282.7c11.3,0,21.2-9.4,21.2-20.7C511.1,472.9,501.7,463.6,489.9,463.6z M489.9,588.6H207.2c-11.3,0-21.2,9.4-21.2,20.7s9.4,20.7,21.2,20.7h282.7c11.3,0,21.2-9.4,21.2-20.7S501.7,588.6,489.9,588.6z M951.3,442.4L845.5,336.5c-4.9-4.9-10.8-7.4-17.7-7.4l0,0c-6.9,0-12.8,2.5-17.7,7.4L474.1,671.4c-3.4,3.4-5.4,7.4-6.4,11.8l-32,137.4c-2,8.4,0.5,17.2,6.9,23.1c4.9,4.9,11.3,7.4,17.7,7.4c2,0,3.9,0,5.9-0.5l137.9-31.5l0,0c4.4-1,8.9-3.4,11.8-6.9l335.9-334.9c4.9-4.9,7.4-10.8,7.4-17.7C958.7,453.2,955.8,446.8,951.3,442.4z M589.4,779.7l-106.9,24.6l24.6-106.9L740.1,465l82.2,82.2L589.4,779.7z M851.9,517.7l-82.2-82.2l58.1-58.1l82.2,82.7L851.9,517.7z"/></g>
</svg>