<?xml version="1.0" encoding="utf-8"?>
<!-- Svg Vector Icons : http://www.onlinewebfonts.com/icon -->
<!DOCTYPE svg PUBLIC "-//W3C//DTD SVG 1.1//EN" "http://www.w3.org/Graphics/SVG/1.1/DTD/svg11.dtd">
<svg version="1.1" xmlns="http://www.w3.org/2000/svg" xmlns:xlink="http://www.w3.org/1999/xlink" x="0px" y="0px" viewBox="0 0 1000 1000" enable-background="new 0 0 1000 1000" xml:space="preserve">
<metadata> Svg Vector Icons : http://www.onlinewebfonts.com/icon </metadata>
<g><path d="M24.2,326.9l460.5,262.7c4.3,2.4,8.9,3.6,13.4,3.6c4.9,0,9.7-1.3,14-3.8c0.2-0.1,0.4-0.2,0.6-0.3l462.2-263c9-5.1,13.9-14.6,13.8-24.3c0.1-9.7-4.8-19.1-13.8-24.3l-462.2-263c-0.2-0.1-0.4-0.2-0.6-0.3c-4.2-2.5-9.1-3.8-14-3.8c-4.6,0-9.2,1.1-13.4,3.6L24.2,276.6c-9.3,5.3-14.2,15.2-13.8,25.1C10,311.7,14.9,321.6,24.2,326.9z M498.3,76.6l395.5,225.1L498.3,526.8L103.6,301.7L498.3,76.6z"/><path d="M944.2,669.7L498.3,923.8L55.8,669.7c-14.7-8.4-33.4-3.4-41.8,11.3c-8.4,14.7-3.4,33.4,11.3,41.8l457.7,262.8c4.7,2.7,10,4.1,15.2,4.1c5.2,0,10.5-1.3,15.2-4l461.1-262.8c14.7-8.4,19.8-27.1,11.4-41.7C977.6,666.4,958.9,661.3,944.2,669.7z"/><path d="M25.4,526.9l457.7,262.8c4.7,2.7,10,4.1,15.2,4.1c5.2,0,10.5-1.3,15.2-4l461.1-262.8c14.7-8.4,19.8-27.1,11.4-41.7c-8.4-14.7-27.1-19.8-41.7-11.4L498.3,727.9L55.8,473.8c-14.7-8.4-33.4-3.4-41.8,11.3C5.7,499.8,10.7,518.5,25.4,526.9z"/></g>
</svg>