<?xml version="1.0" encoding="utf-8"?>
<!-- Svg Vector Icons : http://www.onlinewebfonts.com/icon -->
<!DOCTYPE svg PUBLIC "-//W3C//DTD SVG 1.1//EN" "http://www.w3.org/Graphics/SVG/1.1/DTD/svg11.dtd">
<svg version="1.1" xmlns="http://www.w3.org/2000/svg" xmlns:xlink="http://www.w3.org/1999/xlink" x="0px" y="0px" viewBox="0 0 1000 1000" enable-background="new 0 0 1000 1000" xml:space="preserve">
<metadata> Svg Vector Icons : http://www.onlinewebfonts.com/icon </metadata>
<g><path d="M886.8,22.9H113.2C56.3,22.9,10,69.2,10,126.1v515.8C10,698.7,56.3,745,113.2,745h427.7l224.6,224.6c5,5,11.6,7.6,18.2,7.6c6.6,0,13.2-2.5,18.2-7.6c10.1-10.1,10.1-26.4,0-36.5L569.7,701c-4.8-4.8-11.4-7.6-18.2-7.6H113.2c-28.4,0-51.6-23.1-51.6-51.6V126.1c0-28.4,23.1-51.6,51.6-51.6h773.7c28.4,0,51.6,23.1,51.6,51.6v515.8c0,28.4-23.1,51.6-51.6,51.6H783.9c-14.3,0-25.8,11.5-25.8,25.8c0,14.3,11.5,25.8,25.8,25.8h102.9c56.9,0,103.2-46.3,103.2-103.2V126.1C990,69.2,943.7,22.9,886.8,22.9z M216.3,383.9c0,28.5,23.1,51.6,51.6,51.6c28.5,0,51.6-23.1,51.6-51.6s-23.1-51.6-51.6-51.6C239.4,332.4,216.3,355.5,216.3,383.9z M448.4,383.9c0,28.5,23.1,51.6,51.6,51.6c28.5,0,51.6-23.1,51.6-51.6s-23.1-51.6-51.6-51.6C471.5,332.4,448.4,355.5,448.4,383.9z M783.7,383.9c0-28.5-23.1-51.6-51.6-51.6s-51.6,23.1-51.6,51.6c0,28.5,23.1,51.6,51.6,51.6S783.7,412.4,783.7,383.9z"/></g>
</svg>